<?xml version="1.0" encoding="UTF-8"?>
<svg version="1.1" xmlns="http://www.w3.org/2000/svg" width="227" height="251">
<path d="M0 0 C74.91 0 149.82 0 227 0 C227 82.83 227 165.66 227 251 C152.09 251 77.18 251 0 251 C0 168.17 0 85.34 0 0 Z " fill="#6B507C" transform="translate(0,0)"/>
<path d="M0 0 C0.75913696 -0.06162323 1.51827393 -0.12324646 2.30041504 -0.18673706 C9.38592147 -0.72492424 16.48993006 -1.01505955 23.59158325 -1.24025917 C28.33825279 -1.39186803 33.05371802 -1.61293198 37.78515625 -2.02929688 C58.92818407 -3.83790685 75.84811979 -1.97751813 92.68788147 11.94058228 C107.78596011 25.42280689 116.40378558 39.01571672 117.83413696 59.4312439 C118.25895287 70.42474487 117.72497938 81.34035314 116.99505615 92.30847168 C116.6213904 98.62899034 116.49112628 104.95486091 116.33007812 111.28369141 C116.05498625 120.48971765 115.71263238 129.687765 115.15454102 138.88134766 C115.10562714 139.82865753 115.05671326 140.77596741 115.00631714 141.75198364 C114.57630742 148.15324216 113.60780343 152.89410355 108.6484375 157.36962891 C105.349689 159.65337787 103.68468966 160.1846956 99.72761536 160.21775818 C98.31246643 160.23282661 98.31246643 160.23282661 96.86872864 160.24819946 C95.83028305 160.25403046 94.79183746 160.25986145 93.72192383 160.26586914 C92.08512161 160.28054482 92.08512161 160.28054482 90.41525269 160.29551697 C86.79117054 160.32551836 83.16712544 160.34687043 79.54296875 160.36572266 C78.30686041 160.37229448 77.07075207 160.37886631 75.7971859 160.38563728 C69.92869864 160.41488696 64.06022694 160.43880291 58.19169217 160.45606941 C51.42453865 160.47640772 44.6580542 160.52024464 37.89117032 160.5835709 C32.02536702 160.63659399 26.15978774 160.65662474 20.29376793 160.66533089 C17.80147379 160.67389708 15.30919292 160.69274349 12.81705666 160.72207451 C9.32643975 160.76094242 5.8377054 160.76202856 2.34692383 160.75415039 C0.80443718 160.78415131 0.80443718 160.78415131 -0.76921082 160.8147583 C-6.70412193 160.75467887 -10.25150616 159.97628792 -14.49004269 155.67004776 C-18.09115685 151.19874958 -18.07137433 146.77654066 -18.01611328 141.23754883 C-18.01640533 140.46628662 -18.01669739 139.69502441 -18.01699829 138.90039062 C-18.01561002 136.36267671 -18.00007265 133.82525999 -17.984375 131.28759766 C-17.98064308 129.52354594 -17.97779695 127.75949215 -17.97579956 125.99543762 C-17.9681772 121.36103556 -17.94854071 116.7267596 -17.9263916 112.09240723 C-17.90590307 107.35996201 -17.89679141 102.62749635 -17.88671875 97.89501953 C-17.8652935 88.61566736 -17.83117442 79.33640864 -17.7890625 70.05712891 C-16.8527877 70.04166771 -16.8527877 70.04166771 -15.89759827 70.02589417 C-9.42551698 69.91806357 -2.95358157 69.80344743 3.51831055 69.68481445 C5.93657389 69.64139013 8.3548694 69.59972079 10.77319336 69.55981445 C14.24082146 69.50229287 17.70828653 69.43854704 21.17578125 69.37353516 C22.26430893 69.35682266 23.35283661 69.34011017 24.47434998 69.32289124 C25.47531204 69.30294601 26.47627411 69.28300079 27.50756836 69.26245117 C28.83660439 69.23913475 28.83660439 69.23913475 30.19248962 69.21534729 C32.20731291 69.27731566 32.20731291 69.27731566 33.2109375 68.05712891 C33.31106151 65.85062235 33.3417493 63.64090504 33.34375 61.43212891 C33.34470673 60.77003418 33.34566345 60.10793945 33.34664917 59.42578125 C33.34733076 58.0235993 33.34547792 56.6214142 33.34130859 55.21923828 C33.33595996 53.06617177 33.3412542 50.91331388 33.34765625 48.76025391 C33.34699546 47.40087844 33.34571429 46.04150311 33.34375 44.68212891 C33.34205811 42.81427734 33.34205811 42.81427734 33.34033203 40.90869141 C33.53665877 38.1580746 33.53665877 38.1580746 32.2109375 37.05712891 C30.64645367 36.93449502 29.07660978 36.87933368 27.50756836 36.85180664 C26.00612526 36.82188881 26.00612526 36.82188881 24.47434998 36.79136658 C22.84155846 36.76629784 22.84155846 36.76629784 21.17578125 36.74072266 C20.06739395 36.71994156 18.95900665 36.69916046 17.81703186 36.67774963 C14.26089942 36.61213267 10.70469047 36.55331295 7.1484375 36.49462891 C4.74413257 36.45145523 2.33983551 36.40784133 -0.06445312 36.36376953 C-5.97257435 36.25643899 -11.88077241 36.1546956 -17.7890625 36.05712891 C-17.90568511 32.01570675 -17.976456 27.97472025 -18.0390625 23.93212891 C-18.07257812 22.79001953 -18.10609375 21.64791016 -18.140625 20.47119141 C-18.26590588 9.69703611 -18.26590588 9.69703611 -13.7890625 5.05712891 C-9.29311276 1.53092516 -5.59936674 0.36035053 0 0 Z " fill="#FCFCFC" transform="translate(66.7890625,49.94287109375)"/>
<path d="M0 0 C1.21473495 -0.00637985 2.42946991 -0.0127597 3.68101501 -0.01933289 C5.01724203 -0.02086145 6.35346958 -0.02197547 7.68969727 -0.02270508 C9.05111222 -0.02591606 10.41252682 -0.02928 11.77394104 -0.03279114 C14.63136597 -0.03878849 17.48876062 -0.04063043 20.34619141 -0.04003906 C24.01284602 -0.03993742 27.67930708 -0.05358891 31.34591579 -0.07081127 C34.15884803 -0.08191452 36.97173323 -0.08395879 39.78468513 -0.08342934 C41.136716 -0.08461202 42.48874798 -0.08904986 43.84075737 -0.0967617 C45.72975053 -0.10652706 47.61880013 -0.10242828 49.5078125 -0.09765625 C50.58401352 -0.09908127 51.66021454 -0.10050629 52.76902771 -0.10197449 C55.31860352 0.14526367 55.31860352 0.14526367 57.31860352 2.14526367 C57.57739258 5.09448242 57.57739258 5.09448242 57.58422852 8.83276367 C57.58614197 9.49107178 57.58805542 10.14937988 57.59002686 10.82763672 C57.59138801 12.21964907 57.58769635 13.61167414 57.5793457 15.00366211 C57.56864452 17.13708956 57.57924258 19.26967498 57.59204102 21.40307617 C57.59071941 22.75464053 57.58815699 24.10620437 57.58422852 25.45776367 C57.58197266 26.69139648 57.5797168 27.9250293 57.57739258 29.19604492 C57.31860352 32.14526367 57.31860352 32.14526367 55.31860352 34.14526367 C53.17990112 34.38577271 53.17990112 34.38577271 50.50170898 34.37231445 C49.50082245 34.37216339 48.49993591 34.37201233 47.46871948 34.37185669 C45.84366989 34.35637283 45.84366989 34.35637283 44.18579102 34.34057617 C43.07881866 34.33774628 41.97184631 34.33491638 40.83132935 34.33200073 C37.28531214 34.32077886 33.73954476 34.29567058 30.19360352 34.27026367 C27.79386757 34.26023647 25.39412768 34.25111017 22.99438477 34.24291992 C17.10237201 34.22083299 11.21050561 34.18733574 5.31860352 34.14526367 C5.31860352 36.45526367 5.31860352 38.76526367 5.31860352 41.14526367 C0.51597129 39.88743142 -3.49945796 38.03950053 -6.68139648 34.14526367 C-7.23709785 31.29026277 -7.41617898 29.30386212 -7.30249023 26.47338867 C-7.29331322 25.38885406 -7.29331322 25.38885406 -7.28395081 24.28240967 C-7.25711365 21.98524809 -7.18799065 19.69150111 -7.11889648 17.39526367 C-7.09736227 15.83670433 -7.07845403 14.27810635 -7.06225586 12.71948242 C-6.87397571 0.02436496 -6.87397571 0.02436496 0 0 Z " fill="#DC362D" transform="translate(43.681396484375,85.854736328125)"/>
<path d="M0 0 C4.37477821 0.11135799 6.90014782 1.50369813 10.25 4.375 C10.91666667 5.70833333 11.58333333 7.04166667 12.25 8.375 C14.23075027 9.73676581 16.23079663 11.07093116 18.25 12.375 C20.27211493 15.40817239 20.49140895 16.24699333 20.6875 19.6875 C20.96704111 22.95232921 21.31849242 24.50671618 22.875 27.5 C24.66301948 31.23858618 24.22376682 33.40502757 23.25 37.375 C22.59 38.365 21.93 39.355 21.25 40.375 C20.93254456 41.82389919 20.66510894 43.28429847 20.4375 44.75 C19.47452156 49.33525889 17.92743789 51.35132884 14.25 54.375 C13.66347656 54.90222656 13.07695312 55.42945313 12.47265625 55.97265625 C8.48370887 59.539939 5.70474381 61.50124874 0.1875 61.625 C-1.111875 61.5425 -2.41125 61.46 -3.75 61.375 C-6.00459011 57.99311483 -5.9970098 56.82601171 -5.98046875 52.8671875 C-5.97853516 51.79855469 -5.97660156 50.72992188 -5.97460938 49.62890625 C-5.96236328 48.51386719 -5.95011719 47.39882812 -5.9375 46.25 C-5.93685547 45.12722656 -5.93621094 44.00445312 -5.93554688 42.84765625 C-5.89020707 34.51520707 -5.89020707 34.51520707 -4.75 33.375 C-3.23071962 33.30320036 -1.70832518 33.29107993 -0.1875 33.3125 C0.63878906 33.32152344 1.46507813 33.33054688 2.31640625 33.33984375 C2.95449219 33.35144531 3.59257813 33.36304688 4.25 33.375 C4.25 32.055 4.25 30.735 4.25 29.375 C0.95 29.375 -2.35 29.375 -5.75 29.375 C-5.8078304 24.91672074 -5.84353855 20.4585372 -5.875 16 C-5.89175781 14.72898438 -5.90851563 13.45796875 -5.92578125 12.1484375 C-5.93222656 10.93671875 -5.93867187 9.725 -5.9453125 8.4765625 C-5.96102295 6.79554443 -5.96102295 6.79554443 -5.97705078 5.08056641 C-5.60600226 0.65910435 -4.30184279 0.43018428 0 0 Z " fill="#F8EAE7" transform="translate(121.75,132.625)"/>
<path d="M0 0 C3.1534357 1.3993037 5.31005971 3.0491336 7.75878906 5.46826172 C8.83945648 6.52978958 8.83945648 6.52978958 9.94195557 7.61276245 C11.09217194 8.75964035 11.09217194 8.75964035 12.265625 9.9296875 C13.05902283 10.71642853 13.85242065 11.50316956 14.66986084 12.31375122 C16.34341643 13.9771894 18.01427337 15.64334644 19.68261719 17.31201172 C22.24381482 19.86882541 24.82057462 22.40922222 27.3984375 24.94921875 C29.02181172 26.56672699 30.64424043 28.18518485 32.265625 29.8046875 C33.04053284 30.5652243 33.81544067 31.32576111 34.61383057 32.10934448 C35.32166687 32.82333405 36.02950317 33.53732361 36.75878906 34.27294922 C37.38626038 34.8975705 38.01373169 35.52219177 38.66021729 36.16574097 C40 38 40 38 40 42 C35.39194479 42.12394421 30.78486719 42.21449675 26.17553711 42.2746582 C24.60895886 42.29974547 23.04249701 42.33382415 21.47631836 42.37719727 C19.21959691 42.43811226 16.96442706 42.46626499 14.70703125 42.48828125 C14.01100296 42.51408768 13.31497467 42.5398941 12.59785461 42.56648254 C8.78527771 42.5686631 7.15656494 42.12498702 4.14331055 39.71948242 C0.2852203 34.82424751 -0.28649615 31.58453015 -0.1953125 25.390625 C-0.1924826 24.66381531 -0.18965271 23.93700562 -0.18673706 23.18817139 C-0.17557523 20.87527749 -0.15047851 18.56277612 -0.125 16.25 C-0.11496501 14.67839102 -0.10584006 13.10677596 -0.09765625 11.53515625 C-0.07564904 7.68995378 -0.04114715 3.84504336 0 0 Z " fill="#B3A5C1" transform="translate(141,51)"/>
<path d="M0 0 C1.72558594 1.16552734 1.72558594 1.16552734 3 3 C3.35644531 5.61962891 3.35644531 5.61962891 3.328125 8.7265625 C3.32296875 9.8403125 3.3178125 10.9540625 3.3125 12.1015625 C3.291875 13.26429688 3.27125 14.42703125 3.25 15.625 C3.24484375 16.79546875 3.2396875 17.9659375 3.234375 19.171875 C3.15387149 27.84612851 3.15387149 27.84612851 2 29 C-0.28808802 29.24179404 -2.57465815 29.38336599 -4.87109375 29.5234375 C-7.38472371 29.82873755 -7.38472371 29.82873755 -9 33 C-10.485 32.505 -10.485 32.505 -12 32 C-11.42655063 29.13275314 -11.1385485 28.1385485 -9 26 C-6.31160615 25.73008094 -3.70858064 25.91262643 -1 26 C-1 24.02 -1 22.04 -1 20 C-2.98 20 -4.96 20 -7 20 C-6.67 18.68 -6.34 17.36 -6 16 C-4.35 16 -2.7 16 -1 16 C-1 12.04 -1 8.08 -1 4 C-4.40614946 4.02126462 -4.40614946 4.02126462 -8 5 C-9.05226728 6.97300116 -10.04788888 8.97676387 -11 11 C-12.6953125 11.93359375 -12.6953125 11.93359375 -14.625 12.75 C-16.52643479 13.57663344 -16.52643479 13.57663344 -18 15 C-18.9140371 18.3391413 -19.04609311 21.54960164 -19 25 C-18.01 24.67 -17.02 24.34 -16 24 C-16.04125 22.72125 -16.0825 21.4425 -16.125 20.125 C-16.1953125 17.9453125 -16.1953125 17.9453125 -16 16 C-15.34 15.34 -14.68 14.68 -14 14 C-11.875 14.375 -11.875 14.375 -10 15 C-10.25587405 16.77305664 -10.53027739 18.54344608 -10.8125 20.3125 C-10.96332031 21.29863281 -11.11414063 22.28476563 -11.26953125 23.30078125 C-12.04649724 26.17181602 -12.57917024 27.30998677 -15 29 C-18.6875 29.1875 -18.6875 29.1875 -22 29 C-22 30.32 -22 31.64 -22 33 C-21.278125 32.7525 -20.55625 32.505 -19.8125 32.25 C-17 32 -17 32 -14.1875 33.6875 C-12 36 -12 36 -12 40 C-12.99 40 -13.98 40 -15 40 C-15.66 42.97 -16.32 45.94 -17 49 C-15.845 49.78375 -14.69 50.5675 -13.5 51.375 C-11.53125 52.7109375 -11.53125 52.7109375 -10 54 C-10 54.66 -10 55.32 -10 56 C-7.03 56.66 -4.06 57.32 -1 58 C-1 56.68 -1 55.36 -1 54 C-2.98 54 -4.96 54 -7 54 C-7.33 53.34 -7.66 52.68 -8 52 C-7.67 51.01 -7.34 50.02 -7 49 C-10.465 49.495 -10.465 49.495 -14 50 C-14.33 48.68 -14.66 47.36 -15 46 C-10.545 45.505 -10.545 45.505 -6 45 C-5.34 46.32 -4.68 47.64 -4 49 C-3.01 49 -2.02 49 -1 49 C-1 45.04 -1 41.08 -1 37 C-2.65 37 -4.3 37 -6 37 C-6 38.65 -6 40.3 -6 42 C-7.32 41.67 -8.64 41.34 -10 41 C-10.36536965 36.49377432 -10.36536965 36.49377432 -8.77734375 34.34765625 C-6.50037423 32.62116288 -5.20163465 32.65792721 -2.375 32.75 C-1.57835938 32.76546875 -0.78171875 32.7809375 0.0390625 32.796875 C2 33 2 33 3 34 C3.28058489 37.95114545 3.23181436 41.91507723 3.25 45.875 C3.270625 46.99003906 3.29125 48.10507813 3.3125 49.25390625 C3.31765625 50.32253906 3.3228125 51.39117187 3.328125 52.4921875 C3.3374707 53.47558105 3.34681641 54.45897461 3.35644531 55.47216797 C3 58 3 58 1.70605469 59.80517578 C-0.66755798 61.46751986 -2.89383226 61.65058414 -5.74609375 61.55078125 C-10.33960973 60.42827561 -13.57390526 57.10571565 -17 54 C-17.969375 53.21625 -18.93875 52.4325 -19.9375 51.625 C-22.42364863 48.46081084 -22.86393769 45.96371046 -23.53125 42.0625 C-23.87882431 39.8501569 -23.87882431 39.8501569 -25.625 37.9375 C-27.90704547 34.72189047 -27.30745968 31.87399193 -27 28 C-26.01 26.515 -26.01 26.515 -25 25 C-24.67883355 23.40514781 -24.41272198 21.79870342 -24.1875 20.1875 C-23.23668067 15.06655179 -21.8137901 12.54137653 -18 9 C-16.66893378 8.65772583 -15.33599921 8.32248257 -14 8 C-13.30341637 6.34561387 -12.63903117 4.67745682 -12 3 C-8.50588351 -0.89728378 -4.90597665 -0.46723587 0 0 Z " fill="#CF4940" transform="translate(111,133)"/>
<path d="M0 0 C0.33 0 0.66 0 1 0 C1 8.91 1 17.82 1 27 C4.3 27 7.6 27 11 27 C11 28.32 11 29.64 11 31 C8.03 31.33 5.06 31.66 2 32 C1.97101184 35.93748458 1.95320536 39.87494179 1.9375 43.8125 C1.92912109 44.93205078 1.92074219 46.05160156 1.91210938 47.20507812 C1.90888672 48.27822266 1.90566406 49.35136719 1.90234375 50.45703125 C1.89710693 51.44678955 1.89187012 52.43654785 1.88647461 53.45629883 C1.88930041 56.12392734 1.88930041 56.12392734 3 59 C2.401875 58.835 1.80375 58.67 1.1875 58.5 C-1.11344336 57.8885876 -1.11344336 57.8885876 -4 58 C-3.34 57.34 -2.68 56.68 -2 56 C-1.72191783 53.47622345 -1.72191783 53.47622345 -1.8046875 50.5546875 C-1.81113281 49.47832031 -1.81757812 48.40195313 -1.82421875 47.29296875 C-1.84097656 46.16503906 -1.85773438 45.03710938 -1.875 43.875 C-1.88402344 42.73933594 -1.89304687 41.60367188 -1.90234375 40.43359375 C-1.92596902 37.62218701 -1.95890987 34.81119702 -2 32 C-3.45792884 31.94600264 -4.91642712 31.90720823 -6.375 31.875 C-7.18710938 31.85179687 -7.99921875 31.82859375 -8.8359375 31.8046875 C-11.21342243 31.78629949 -11.21342243 31.78629949 -13 34 C-13.16687448 36.58354218 -13.16687448 36.58354218 -13 39 C-12.01 39.33 -11.02 39.66 -10 40 C-10 38.35 -10 36.7 -10 35 C-8.35 35 -6.7 35 -5 35 C-5 38.96 -5 42.92 -5 47 C-5.99 47 -6.98 47 -8 47 C-8.66 46.01 -9.32 45.02 -10 44 C-12.20725073 43.63637182 -12.20725073 43.63637182 -14.625 43.8125 C-15.44226563 43.83957031 -16.25953125 43.86664063 -17.1015625 43.89453125 C-18.04128906 43.94673828 -18.04128906 43.94673828 -19 44 C-18.67 44.99 -18.34 45.98 -18 47 C-15.69 47 -13.38 47 -11 47 C-11 48.32 -11 49.64 -11 51 C-9.02 51.33 -7.04 51.66 -5 52 C-5 53.32 -5 54.64 -5 56 C-10.35888625 55.5796952 -13.05578843 54.63282644 -17 51 C-17.928125 50.2575 -18.85625 49.515 -19.8125 48.75 C-20.8953125 47.88375 -20.8953125 47.88375 -22 47 C-21.34 43.7 -20.68 40.4 -20 37 C-18.68 37.33 -17.36 37.66 -16 38 C-17.24976756 34.34683329 -17.67098753 33.21934164 -21 31 C-23.62531524 30.83286431 -23.62531524 30.83286431 -26 31 C-26 29.68 -26 28.36 -26 27 C-24.88625 26.87625 -23.7725 26.7525 -22.625 26.625 C-18.96896323 26.3534187 -18.96896323 26.3534187 -17 24 C-16.71365426 21.99557982 -16.43076704 19.98898706 -16.24609375 17.97265625 C-16 16 -16 16 -15 13 C-16.32 13.33 -17.64 13.66 -19 14 C-19 16.64 -19 19.28 -19 22 C-20.32 22.33 -21.64 22.66 -23 23 C-23.35040695 19.59975479 -23.530811 16.38657418 -23 13 C-18.61904762 9 -18.61904762 9 -15 9 C-14.87625 8.21625 -14.7525 7.4325 -14.625 6.625 C-14 4 -14 4 -12 2 C-8.375 1.875 -8.375 1.875 -5 2 C-5 5.96 -5 9.92 -5 14 C-6.65 14.33 -8.3 14.66 -10 15 C-10.33 15.99 -10.66 16.98 -11 18 C-9.02 18 -7.04 18 -5 18 C-5 19.98 -5 21.96 -5 24 C-6.27875 24.12375 -7.5575 24.2475 -8.875 24.375 C-12.34790936 24.69042399 -12.34790936 24.69042399 -15 27 C-15 27.99 -15 28.98 -15 30 C-14.34 30 -13.68 30 -13 30 C-12.34 29.01 -11.68 28.02 -11 27 C-8.8359375 26.48828125 -8.8359375 26.48828125 -6.375 26.3125 C-5.55773437 26.24675781 -4.74046875 26.18101562 -3.8984375 26.11328125 C-2.95871094 26.05720703 -2.95871094 26.05720703 -2 26 C-1.97494385 25.2479126 -1.9498877 24.4958252 -1.92407227 23.72094727 C-1.80849486 20.33460804 -1.68559655 16.94857387 -1.5625 13.5625 C-1.52318359 12.37849609 -1.48386719 11.19449219 -1.44335938 9.97460938 C-1.40146484 8.84990234 -1.35957031 7.72519531 -1.31640625 6.56640625 C-1.27974854 5.52427979 -1.24309082 4.48215332 -1.20532227 3.40844727 C-1 1 -1 1 0 0 Z " fill="#F8EBE8" transform="translate(115,135)"/>
<path d="M0 0 C4.37477821 0.11135799 6.90014782 1.50369813 10.25 4.375 C10.91666667 5.70833333 11.58333333 7.04166667 12.25 8.375 C14.23075027 9.73676581 16.23079663 11.07093116 18.25 12.375 C20.27211493 15.40817239 20.49140895 16.24699333 20.6875 19.6875 C20.96704111 22.95232921 21.31849242 24.50671618 22.875 27.5 C24.66301948 31.23858618 24.22376682 33.40502757 23.25 37.375 C22.59 38.365 21.93 39.355 21.25 40.375 C20.93254456 41.82389919 20.66510894 43.28429847 20.4375 44.75 C19.47452156 49.33525889 17.92743789 51.35132884 14.25 54.375 C13.66347656 54.90222656 13.07695312 55.42945313 12.47265625 55.97265625 C8.48370887 59.539939 5.70474381 61.50124874 0.1875 61.625 C-1.111875 61.5425 -2.41125 61.46 -3.75 61.375 C-6.00459011 57.99311483 -5.9970098 56.82601171 -5.98046875 52.8671875 C-5.97853516 51.79855469 -5.97660156 50.72992188 -5.97460938 49.62890625 C-5.96236328 48.51386719 -5.95011719 47.39882812 -5.9375 46.25 C-5.93685547 45.12722656 -5.93621094 44.00445312 -5.93554688 42.84765625 C-5.89020707 34.51520707 -5.89020707 34.51520707 -4.75 33.375 C2.70864662 33.01409774 2.70864662 33.01409774 6.25 35.375 C6.4375 39 6.4375 39 6.25 42.375 C5.26 42.375 4.27 42.375 3.25 42.375 C3.25 40.725 3.25 39.075 3.25 37.375 C1.27 37.375 -0.71 37.375 -2.75 37.375 C-2.42 43.975 -2.09 50.575 -1.75 57.375 C5.23015255 56.61196998 5.23015255 56.61196998 9.25 52.375 C10.549375 51.694375 10.549375 51.694375 11.875 51 C14.9716974 48.88120704 15.37793637 46.94253304 16.25 43.375 C15.59 43.375 14.93 43.375 14.25 43.375 C14.66207985 40.49044106 15.10716381 39.50485108 17.3125 37.5 C19.5382115 35.47073419 19.5382115 35.47073419 19.625 32.3125 C19.44767963 29.18957626 19.44767963 29.18957626 17.25 26.375 C16.9765625 24.25390625 16.9765625 24.25390625 16.875 21.9375 C16.57713578 18.71847614 16.41764235 17.60045006 14.4375 14.9375 C12.33904037 13.32093978 12.33904037 13.32093978 10.0625 12.4375 C9.464375 12.086875 8.86625 11.73625 8.25 11.375 C8.105625 10.55 7.96125 9.725 7.8125 8.875 C7.626875 8.05 7.44125 7.225 7.25 6.375 C3.97271751 4.51492075 2.0840246 4.375 -1.75 4.375 C-2.08 8.335 -2.41 12.295 -2.75 16.375 C-0.77 16.375 1.21 16.375 3.25 16.375 C3.25 17.695 3.25 19.015 3.25 20.375 C1.27 20.375 -0.71 20.375 -2.75 20.375 C-2.75 22.355 -2.75 24.335 -2.75 26.375 C-1.81027344 26.34019531 -1.81027344 26.34019531 -0.8515625 26.3046875 C-0.03429687 26.28664062 0.78296875 26.26859375 1.625 26.25 C2.84316406 26.21519531 2.84316406 26.21519531 4.0859375 26.1796875 C6.25 26.375 6.25 26.375 8.25 28.375 C8.375 31 8.375 31 8.25 33.375 C6.93 32.715 5.61 32.055 4.25 31.375 C4.25 30.715 4.25 30.055 4.25 29.375 C0.95 29.375 -2.35 29.375 -5.75 29.375 C-5.8078304 24.91672074 -5.84353855 20.4585372 -5.875 16 C-5.89175781 14.72898438 -5.90851563 13.45796875 -5.92578125 12.1484375 C-5.93222656 10.93671875 -5.93867187 9.725 -5.9453125 8.4765625 C-5.96102295 6.79554443 -5.96102295 6.79554443 -5.97705078 5.08056641 C-5.60600226 0.65910435 -4.30184279 0.43018428 0 0 Z " fill="#D04036" transform="translate(121.75,132.625)"/>
<path d="M0 0 C11.55 0 23.1 0 35 0 C35 0.99 35 1.98 35 3 C33.02 3 31.04 3 29 3 C29 4.32 29 5.64 29 7 C30.65 7 32.3 7 34 7 C34 7.66 34 8.32 34 9 C32.35 9 30.7 9 29 9 C29 10.98 29 12.96 29 15 C27.68 14.67 26.36 14.34 25 14 C25 13.34 25 12.68 25 12 C24.154375 12.495 23.30875 12.99 22.4375 13.5 C18.66203168 15.14747708 16.07182452 15.24430947 12 15 C12 12.69 12 10.38 12 8 C11.443125 8.33 10.88625 8.66 10.3125 9 C7.69715478 10.1309601 5.8193354 10.15662974 3 10 C3 11.65 3 13.3 3 15 C2.01 15 1.02 15 0 15 C0 10.05 0 5.1 0 0 Z " fill="#D65448" transform="translate(55,96)"/>
<path d="M0 0 C4.18417403 1.63873844 6.98397805 4.71294346 10.078125 7.84765625 C10.93528107 8.70549965 10.93528107 8.70549965 11.80975342 9.58067322 C13.01226448 10.78619786 14.21235172 11.99414454 15.41015625 13.2043457 C17.25205899 15.06457948 19.10191366 16.91661217 20.953125 18.76757812 C22.12026614 19.93963188 23.28694913 21.11214207 24.453125 22.28515625 C25.00929504 22.84243912 25.56546509 23.39972198 26.13848877 23.97389221 C30 27.88393472 30 27.88393472 30 29 C10.40378179 27.84906292 10.40378179 27.84906292 5.5625 24.125 C2.715222 20.25270192 1.63599337 16.8721491 0.875 12.125 C0.70742187 11.11695312 0.53984375 10.10890625 0.3671875 9.0703125 C0.00172005 6.01438252 -0.06424163 3.07442109 0 0 Z " fill="#D7D0E4" transform="translate(148,58)"/>
<path d="M0 0 C3.55492191 0.23699479 5.51717586 0.60852097 8.3125 2.875 C10 5 10 5 11 8 C12.59924507 9.1539808 12.59924507 9.1539808 14.5 10.0625 C17.89821183 11.79642366 17.89821183 11.79642366 19 14 C19.27095876 16.26659157 19.44487997 18.53281159 19.62109375 20.80859375 C19.8967824 23.28373645 19.8967824 23.28373645 22 26 C22.36662773 29.44630063 22.37586669 31.35077572 20.625 34.375 C20.08875 34.91125 19.5525 35.4475 19 36 C18.34 36 17.68 36 17 36 C17 35.34 17 34.68 17 34 C17.66 34 18.32 34 19 34 C19 32.35 19 30.7 19 29 C18.21625 29.185625 17.4325 29.37125 16.625 29.5625 C14 30 14 30 12 29 C12 28.34 12 27.68 12 27 C13.98 26.67 15.96 26.34 18 26 C18 25.01 18 24.02 18 23 C16.68 22.34 15.36 21.68 14 21 C14.020625 19.88625 14.04125 18.7725 14.0625 17.625 C14.26380718 14.16784079 14.26380718 14.16784079 13 12 C12.01 12 11.02 12 10 12 C10.185625 12.886875 10.37125 13.77375 10.5625 14.6875 C11 18 11 18 10 23 C6.37 23 2.74 23 -1 23 C-1 21.02 -1 19.04 -1 17 C0.98 16.67 2.96 16.34 5 16 C5 15.34 5 14.68 5 14 C2.03 13.505 2.03 13.505 -1 13 C-1.02686553 11.02090602 -1.04633375 9.04171029 -1.0625 7.0625 C-1.07410156 5.96035156 -1.08570312 4.85820312 -1.09765625 3.72265625 C-1 1 -1 1 0 0 Z " fill="#F6E4E0" transform="translate(120,136)"/>
<path d="M0 0 C1.670625 0.061875 1.670625 0.061875 3.375 0.125 C3.375 4.085 3.375 8.045 3.375 12.125 C1.725 12.455 0.075 12.785 -1.625 13.125 C-1.955 14.115 -2.285 15.105 -2.625 16.125 C-0.645 16.125 1.335 16.125 3.375 16.125 C3.375 18.105 3.375 20.085 3.375 22.125 C2.116875 22.186875 0.85875 22.24875 -0.4375 22.3125 C-2.65509781 22.51028325 -2.65509781 22.51028325 -4.625 23.125 C-5.07875 23.95 -5.5325 24.775 -6 25.625 C-7.625 28.125 -7.625 28.125 -10.01953125 28.67578125 C-12.56001524 28.91384059 -15.07429364 29.07235878 -17.625 29.125 C-17.625 27.805 -17.625 26.485 -17.625 25.125 C-16.51125 25.00125 -15.3975 24.8775 -14.25 24.75 C-10.59396323 24.4784187 -10.59396323 24.4784187 -8.625 22.125 C-8.33865426 20.12057982 -8.05576704 18.11398706 -7.87109375 16.09765625 C-7.625 14.125 -7.625 14.125 -6.625 11.125 C-7.945 11.455 -9.265 11.785 -10.625 12.125 C-10.625 14.765 -10.625 17.405 -10.625 20.125 C-11.945 20.455 -13.265 20.785 -14.625 21.125 C-14.97540695 17.72475479 -15.155811 14.51157418 -14.625 11.125 C-10.24404762 7.125 -10.24404762 7.125 -6.625 7.125 C-6.50125 6.34125 -6.3775 5.5575 -6.25 4.75 C-5.24817417 0.54233152 -4.32269173 0.14905834 0 0 Z " fill="#F7EDEB" transform="translate(106.625,136.875)"/>
<path d="M0 0 C1.19496094 0.02320313 1.19496094 0.02320313 2.4140625 0.046875 C4.375 0.25 4.375 0.25 5.375 1.25 C5.46226223 3.03071246 5.48199041 4.8148314 5.47265625 6.59765625 C5.46943359 7.67724609 5.46621094 8.75683594 5.46289062 9.86914062 C5.45451172 11.00544922 5.44613281 12.14175781 5.4375 13.3125 C5.43298828 14.45267578 5.42847656 15.59285156 5.42382812 16.76757812 C5.41199747 19.59510351 5.3955141 22.4225264 5.375 25.25 C5.045 23.93 4.715 22.61 4.375 21.25 C3.715 21.25 3.055 21.25 2.375 21.25 C2.045 22.24 1.715 23.23 1.375 24.25 C1.375 23.26 1.375 22.27 1.375 21.25 C-0.605 21.25 -2.585 21.25 -4.625 21.25 C-4.955 20.59 -5.285 19.93 -5.625 19.25 C-5.295 18.26 -4.965 17.27 -4.625 16.25 C-6.935 16.58 -9.245 16.91 -11.625 17.25 C-11.955 15.93 -12.285 14.61 -12.625 13.25 C-8.17 12.755 -8.17 12.755 -3.625 12.25 C-2.965 13.57 -2.305 14.89 -1.625 16.25 C-0.635 16.25 0.355 16.25 1.375 16.25 C1.375 12.29 1.375 8.33 1.375 4.25 C-0.275 4.25 -1.925 4.25 -3.625 4.25 C-3.625 5.9 -3.625 7.55 -3.625 9.25 C-4.945 8.92 -6.265 8.59 -7.625 8.25 C-7.99036965 3.74377432 -7.99036965 3.74377432 -6.40234375 1.59765625 C-4.12537423 -0.12883712 -2.82663465 -0.09207279 0 0 Z " fill="#CD5D57" transform="translate(108.625,165.75)"/>
<path d="M0 0 C1.32 0.33 2.64 0.66 4 1 C4.144375 1.9075 4.28875 2.815 4.4375 3.75 C5.03627124 7.42217727 5.03627124 7.42217727 6 11 C6.66 11.33 7.32 11.66 8 12 C8 12.99 8 13.98 8 15 C6.02 15.33 4.04 15.66 2 16 C2 16.66 2 17.32 2 18 C4.31 18 6.62 18 9 18 C9 19.65 9 21.3 9 23 C8.34 23 7.68 23 7 23 C6.67 24.98 6.34 26.96 6 29 C5.34 28.34 4.68 27.68 4 27 C1.41645782 26.83312552 1.41645782 26.83312552 -1 27 C-1 27.66 -1 28.32 -1 29 C-2.32 28.67 -3.64 28.34 -5 28 C-4.01 28 -3.02 28 -2 28 C-2.32960216 22.98464948 -2.32960216 22.98464948 -5 19 C-4.34 18.34 -3.68 17.68 -3 17 C-2.01 17.66 -1.02 18.32 0 19 C-0.66 16.69 -1.32 14.38 -2 12 C-1.34 12 -0.68 12 0 12 C0 10.7625 0 9.525 0 8.25 C0 5.5 0 2.75 0 0 Z " fill="#F2D8D3" transform="translate(130,147)"/>
<path d="M0 0 C2.125 0.375 2.125 0.375 4 1 C3.74412595 2.77305664 3.46972261 4.54344608 3.1875 6.3125 C3.03667969 7.29863281 2.88585937 8.28476563 2.73046875 9.30078125 C1.95350276 12.17181602 1.42082976 13.30998677 -1 15 C-4.6875 15.1875 -4.6875 15.1875 -8 15 C-8 16.32 -8 17.64 -8 19 C-7.278125 18.7525 -6.55625 18.505 -5.8125 18.25 C-3 18 -3 18 -0.1875 19.6875 C2 22 2 22 2 26 C1.01 26 0.02 26 -1 26 C-1.99 28.31 -2.98 30.62 -4 33 C-4.66 31.68 -5.32 30.36 -6 29 C-5.01 29 -4.02 29 -3 29 C-3.33 28.01 -3.66 27.02 -4 26 C-4.99 25.67 -5.98 25.34 -7 25 C-9.71232939 20.93150591 -9.30699887 18.83523216 -9 14 C-8.34 13.34 -7.68 12.68 -7 12 C-6.53993654 9.79749008 -6.53993654 9.79749008 -6.375 7.375 C-6.30023438 6.55773437 -6.22546875 5.74046875 -6.1484375 4.8984375 C-6.09945312 4.27195313 -6.05046875 3.64546875 -6 3 C-5.67 3 -5.34 3 -5 3 C-5 5.64 -5 8.28 -5 11 C-4.01 10.67 -3.02 10.34 -2 10 C-2.04125 8.72125 -2.0825 7.4425 -2.125 6.125 C-2.1953125 3.9453125 -2.1953125 3.9453125 -2 2 C-1.34 1.34 -0.68 0.68 0 0 Z " fill="#F6DFDA" transform="translate(97,147)"/>
<path d="M0 0 C0.33 0 0.66 0 1 0 C1 8.91 1 17.82 1 27 C4.3 27 7.6 27 11 27 C11 28.32 11 29.64 11 31 C8.03 31.33 5.06 31.66 2 32 C1.97101184 35.93748458 1.95320536 39.87494179 1.9375 43.8125 C1.92912109 44.93205078 1.92074219 46.05160156 1.91210938 47.20507812 C1.90888672 48.27822266 1.90566406 49.35136719 1.90234375 50.45703125 C1.89710693 51.44678955 1.89187012 52.43654785 1.88647461 53.45629883 C1.88930041 56.12392734 1.88930041 56.12392734 3 59 C2.401875 58.835 1.80375 58.67 1.1875 58.5 C-1.11344336 57.8885876 -1.11344336 57.8885876 -4 58 C-3.34 57.34 -2.68 56.68 -2 56 C-1.04018899 52.46403351 -0.88194904 49.13112141 -0.90234375 45.48046875 C-0.90556641 44.45888672 -0.90878906 43.43730469 -0.91210938 42.38476562 C-0.92048828 41.32966797 -0.92886719 40.27457031 -0.9375 39.1875 C-0.94201172 38.11306641 -0.94652344 37.03863281 -0.95117188 35.93164062 C-0.96292256 33.28773643 -0.980857 30.643861 -1 28 C-4.3 28 -7.6 28 -11 28 C-11 27.67 -11 27.34 -11 27 C-8.03 26.67 -5.06 26.34 -2 26 C-1.97494385 25.2479126 -1.9498877 24.4958252 -1.92407227 23.72094727 C-1.80849486 20.33460804 -1.68559655 16.94857387 -1.5625 13.5625 C-1.52318359 12.37849609 -1.48386719 11.19449219 -1.44335938 9.97460938 C-1.40146484 8.84990234 -1.35957031 7.72519531 -1.31640625 6.56640625 C-1.27974854 5.52427979 -1.24309082 4.48215332 -1.20532227 3.40844727 C-1 1 -1 1 0 0 Z " fill="#F8E1DE" transform="translate(115,135)"/>
<path d="M0 0 C10.23 0 20.46 0 31 0 C31.04516614 13.73432745 31.08186739 27.46860565 31.10362434 41.20299053 C31.11406603 47.58026067 31.12823239 53.9574774 31.15087891 60.3347168 C31.17259336 66.48792357 31.18456573 72.64107894 31.18975449 78.79432106 C31.19345274 81.1430829 31.20067438 83.4918419 31.21146011 85.84058189 C31.22595627 89.12775144 31.2279787 92.41470798 31.22705078 95.7019043 C31.23424133 96.6751062 31.24143188 97.64830811 31.24884033 98.65100098 C31.23492239 103.20086718 31.18876379 106.87835784 29 111 C27.91444958 107.74334874 28.14023559 107.13474163 29 104 C29.09647082 102.53846514 29.14571517 101.0733655 29.15821838 99.60870361 C29.1680072 98.73654709 29.17779602 97.86439056 29.18788147 96.96580505 C29.19363693 96.01706009 29.1993924 95.06831512 29.20532227 94.09082031 C29.21522186 93.08561844 29.22512146 92.08041656 29.23532104 91.04475403 C29.26690572 87.7225683 29.29168159 84.40036828 29.31640625 81.078125 C29.33697839 78.7745527 29.35797493 76.47098415 29.37937927 74.16741943 C29.43457308 68.10446207 29.48399429 62.0414708 29.53222656 55.97845459 C29.58246118 49.79159527 29.63813703 43.6047852 29.69335938 37.41796875 C29.80090808 25.27868634 29.90185761 13.1393621 30 1 C20.1 1 10.2 1 0 1 C0 0.67 0 0.34 0 0 Z " fill="#DFD8E3" transform="translate(150,93)"/>
<path d="M0 0 C7.36270368 -0.48280024 7.36270368 -0.48280024 10.0625 1.5625 C11.41963883 5.09106096 10.98515877 7.38775116 10 11 C8.3125 12.9375 8.3125 12.9375 6 14 C4.02 14 2.04 14 0 14 C0 9.38 0 4.76 0 0 Z " fill="#F7E0DC" transform="translate(68,97)"/>
<path d="M0 0 C0.66 0 1.32 0 2 0 C2 0.66 2 1.32 2 2 C3.65 2 5.3 2 7 2 C7 2.99 7 3.98 7 5 C6.01 5 5.02 5 4 5 C6.7639949 9.95166746 8.81968601 13.33583852 14 16 C14 16.66 14 17.32 14 18 C16.97 18.33 19.94 18.66 23 19 C23.33 18.01 23.66 17.02 24 16 C24.66 16 25.32 16 26 16 C26.125 18.375 26.125 18.375 26 21 C24 23 24 23 20.4375 23.5625 C14.63254163 23.43584636 11.11013947 19.72579437 7 16 C6.030625 15.21625 5.06125 14.4325 4.0625 13.625 C0.95420795 9.66899194 0 5.00930466 0 0 Z " fill="#CB443D" transform="translate(87,171)"/>
<path d="M0 0 C0.66 0.33 1.32 0.66 2 1 C2 8.59 2 16.18 2 24 C-0.97 24.33 -3.94 24.66 -7 25 C-7.66 25.99 -8.32 26.98 -9 28 C-9.99 27.67 -10.98 27.34 -12 27 C-11.42655063 24.13275314 -11.1385485 23.1385485 -9 21 C-6.31160615 20.73008094 -3.70858064 20.91262643 -1 21 C-1 19.02 -1 17.04 -1 15 C-2.98 15 -4.96 15 -7 15 C-6.67 13.68 -6.34 12.36 -6 11 C-4.02 11 -2.04 11 0 11 C0 7.37 0 3.74 0 0 Z " fill="#D2372B" transform="translate(111,138)"/>
<path d="M0 0 C6.8359375 -0.1953125 6.8359375 -0.1953125 9 0 C9.66 0.66 10.32 1.32 11 2 C10.67028521 5.29714793 10.3773161 6.6226839 8 9 C5.375 9.125 5.375 9.125 3 9 C3 10.65 3 12.3 3 14 C2.01 14 1.02 14 0 14 C0 9.38 0 4.76 0 0 Z " fill="#F8E4DF" transform="translate(55,97)"/>
<path d="M0 0 C0.680625 -0.01675781 1.36125 -0.03351563 2.0625 -0.05078125 C4.66286345 0.4367869 5.40205282 1.21112826 7 3.3125 C7.34057617 5.94799805 7.34057617 5.94799805 7.29296875 9.07421875 C7.28330078 10.19248047 7.27363281 11.31074219 7.26367188 12.46289062 C7.23853516 13.63013672 7.21339844 14.79738281 7.1875 16 C7.17396484 17.17884766 7.16042969 18.35769531 7.14648438 19.57226562 C7.11109326 22.48613411 7.06171809 25.39908945 7 28.3125 C6.67 28.3125 6.34 28.3125 6 28.3125 C5.67 21.0525 5.34 13.7925 5 6.3125 C4.67 9.6125 4.34 12.9125 4 16.3125 C3.67 16.3125 3.34 16.3125 3 16.3125 C3 12.3525 3 8.3925 3 4.3125 C0.36 4.6425 -2.28 4.9725 -5 5.3125 C-5 4.6525 -5 3.9925 -5 3.3125 C-5.66 2.9825 -6.32 2.6525 -7 2.3125 C-4.03082597 0.33305064 -3.34297721 0.01899419 0 0 Z " fill="#CE655F" transform="translate(107,132.6875)"/>
<path d="M0 0 C0.33 0 0.66 0 1 0 C1.33 7.92 1.66 15.84 2 24 C5.3 24 8.6 24 12 24 C14 26 14 26 14.125 28.625 C14.08375 29.40875 14.0425 30.1925 14 31 C12.68 30.34 11.36 29.68 10 29 C10 28.34 10 27.68 10 27 C6.7 27 3.4 27 0 27 C0 18.09 0 9.18 0 0 Z " fill="#CD4941" transform="translate(116,135)"/>
<path d="M0 0 C1.27351308 2.54702616 0.80191925 3.4282945 0.0625 6.125 C-0.13214844 6.84945312 -0.32679688 7.57390625 -0.52734375 8.3203125 C-0.68332031 8.87460938 -0.83929688 9.42890625 -1 10 C-0.34 10 0.32 10 1 10 C-0.31787853 15.60098377 -4.4093344 18.04638308 -9 21 C-10.3221725 21.6885362 -11.65247973 22.36249601 -13 23 C-13 22.34 -13 21.68 -13 21 C-13.99 20.67 -14.98 20.34 -16 20 C-15.319375 19.608125 -14.63875 19.21625 -13.9375 18.8125 C-12.4834375 17.9153125 -12.4834375 17.9153125 -11 17 C-10.39929688 16.63648438 -9.79859375 16.27296875 -9.1796875 15.8984375 C-5.76812186 13.68591585 -4.22778032 12.52488509 -2.5625 8.6875 C-2.376875 7.800625 -2.19125 6.91375 -2 6 C-2.66 6 -3.32 6 -4 6 C-3.6875 4.125 -3.6875 4.125 -3 2 C-2.01 1.34 -1.02 0.68 0 0 Z " fill="#CB4C44" transform="translate(140,170)"/>
<path d="M0 0 C3.56990513 0.23799368 5.54045488 0.63720122 8.375 2.875 C10 5 10 5 10 8 C9.34 8 8.68 8 8 8 C8 8.66 8 9.32 8 10 C5.625 9.75 5.625 9.75 3 9 C1.6875 6.9375 1.6875 6.9375 1 5 C0.67 7.64 0.34 10.28 0 13 C-0.33 13 -0.66 13 -1 13 C-1.02686553 11.02090602 -1.04633375 9.04171029 -1.0625 7.0625 C-1.07410156 5.96035156 -1.08570312 4.85820312 -1.09765625 3.72265625 C-1 1 -1 1 0 0 Z " fill="#EFCBC8" transform="translate(120,136)"/>
<path d="M0 0 C0.33 0 0.66 0 1 0 C1.33 1.98 1.66 3.96 2 6 C2.33 4.02 2.66 2.04 3 0 C3.33 0 3.66 0 4 0 C4.1953125 6.0546875 4.1953125 6.0546875 4 8 C3.34 8.66 2.68 9.32 2 10 C1.8028583 14.13997567 1.69234522 17.07703567 3 21 C3.99 21.33 4.98 21.66 6 22 C4.68 22 3.36 22 2 22 C2 21.34 2 20.68 2 20 C1.01 20.33 0.02 20.66 -1 21 C-2.99825961 18.00261059 -3.27550398 17.36652492 -3.25 14 C-3.25515625 13.319375 -3.2603125 12.63875 -3.265625 11.9375 C-3 10 -3 10 -1 7 C-0.60612212 4.67612053 -0.26513915 2.34206251 0 0 Z " fill="#CE625B" transform="translate(87,151)"/>
<path d="M0 0 C1.134375 0.020625 2.26875 0.04125 3.4375 0.0625 C3.4375 4.0225 3.4375 7.9825 3.4375 12.0625 C3.1075 12.0625 2.7775 12.0625 2.4375 12.0625 C2.4375 10.4125 2.4375 8.7625 2.4375 7.0625 C1.4475 7.0625 0.4575 7.0625 -0.5625 7.0625 C-0.5625 7.7225 -0.5625 8.3825 -0.5625 9.0625 C-1.8825 9.0625 -3.2025 9.0625 -4.5625 9.0625 C-4.5625 8.0725 -4.5625 7.0825 -4.5625 6.0625 C-5.2225 6.0625 -5.8825 6.0625 -6.5625 6.0625 C-4.25951087 0.07472826 -4.25951087 0.07472826 0 0 Z " fill="#FAEFEC" transform="translate(106.5625,136.9375)"/>
<path d="M0 0 C0.66 0.99 1.32 1.98 2 3 C5.58357241 3.25015873 5.58357241 3.25015873 9 3 C9 4.32 9 5.64 9 7 C11.97 7.495 11.97 7.495 15 8 C15 9.32 15 10.64 15 12 C6.87367477 11.36264116 3.4980932 7.65518158 -2 2 C-1.34 2 -0.68 2 0 2 C0 1.34 0 0.68 0 0 Z " fill="#F5E0DD" transform="translate(95,179)"/>
<path d="M0 0 C1.98 0.495 1.98 0.495 4 1 C4.144375 1.9075 4.28875 2.815 4.4375 3.75 C5.03627124 7.42217727 5.03627124 7.42217727 6 11 C6.66 11.33 7.32 11.66 8 12 C8 12.99 8 13.98 8 15 C5.40905378 14.64987213 3.4225789 14.26229035 1.1875 12.875 C-0.64970546 9.97414928 -0.17680264 7.35925013 0 4 C0 2.68 0 1.36 0 0 Z " fill="#CC5C54" transform="translate(130,147)"/>
<path d="M0 0 C0.33 0.99 0.66 1.98 1 3 C1.99 3 2.98 3 4 3 C3.38461538 8.53846154 3.38461538 8.53846154 1.4375 10.875 C0.7259375 11.431875 0.7259375 11.431875 0 12 C-1.32 11.34 -2.64 10.68 -4 10 C-3.01 9.67 -2.02 9.34 -1 9 C-0.67 8.01 -0.34 7.02 0 6 C-1.98 6 -3.96 6 -6 6 C-6 5.34 -6 4.68 -6 4 C-6.99 3.67 -7.98 3.34 -9 3 C-7.68 3 -6.36 3 -5 3 C-5 2.34 -5 1.68 -5 1 C-3.35 0.67 -1.7 0.34 0 0 Z " fill="#F7E2DE" transform="translate(134,173)"/>
<path d="M0 0 C2.125 0.375 2.125 0.375 4 1 C3.74412595 2.77305664 3.46972261 4.54344608 3.1875 6.3125 C2.96126953 7.79169922 2.96126953 7.79169922 2.73046875 9.30078125 C1.95278472 12.17446928 1.44396038 13.33081494 -1 15 C-2.32 15 -3.64 15 -5 15 C-5 14.01 -5 13.02 -5 12 C-4.01 11.34 -3.02 10.68 -2 10 C-1.71181065 8.0861126 -1.71181065 8.0861126 -1.9375 6 C-2.08984375 3.875 -2.08984375 3.875 -2 2 C-1.34 1.34 -0.68 0.68 0 0 Z " fill="#D03A2D" transform="translate(97,147)"/>
<path d="M0 0 C2.97 0 5.94 0 9 0 C9 0.66 9 1.32 9 2 C7.02 2 5.04 2 3 2 C3 3.32 3 4.64 3 6 C4.65 6 6.3 6 8 6 C8 6.66 8 7.32 8 8 C6.35 8 4.7 8 3 8 C3 9.98 3 11.96 3 14 C2.01 14 1.02 14 0 14 C0 9.38 0 4.76 0 0 Z " fill="#FCE6E2" transform="translate(81,97)"/>
<path d="M0 0 C2.3828125 0.0234375 2.3828125 0.0234375 5.125 0.375 C6.03507813 0.48585937 6.94515625 0.59671875 7.8828125 0.7109375 C8.93082031 0.85402344 8.93082031 0.85402344 10 1 C9.67 2.32 9.34 3.64 9 5 C6.69 4.67 4.38 4.34 2 4 C2 5.65 2 7.3 2 9 C0.68 8.67 -0.64 8.34 -2 8 C-2.125 5.125 -2.125 5.125 -2 2 C-1.34 1.34 -0.68 0.68 0 0 Z " fill="#CB544B" transform="translate(124,178)"/>
<path d="M0 0 C1.98 0 3.96 0 6 0 C6 2.31 6 4.62 6 7 C6.99 7.33 7.98 7.66 9 8 C7.02 8.66 5.04 9.32 3 10 C3 8.68 3 7.36 3 6 C2.34 6 1.68 6 1 6 C1 10.62 1 15.24 1 20 C0.67 20 0.34 20 0 20 C0 13.4 0 6.8 0 0 Z " fill="#F3D4D2" transform="translate(119,170)"/>
<path d="M0 0 C4.76082005 2.50569476 4.76082005 2.50569476 5.9375 4.9375 C7.51738591 8.00433735 10.14150268 9.17542724 13 11 C13.33 11.66 13.66 12.32 14 13 C9.39611104 13.32120156 6.61079257 12.99179956 3 10 C2.1875 7.3125 2.1875 7.3125 2 5 C1.01 4.67 0.02 4.34 -1 4 C-0.01 3.67 0.98 3.34 2 3 C1.34 2.67 0.68 2.34 0 2 C0 1.34 0 0.68 0 0 Z " fill="#CF524A" transform="translate(127,134)"/>
<path d="M0 0 C1.99954746 -0.04254356 4.00041636 -0.04080783 6 0 C7.7462388 1.7462388 7.13221151 3.99878324 7.13671875 6.32226562 C7.13285156 7.02029297 7.12898438 7.71832031 7.125 8.4375 C7.12886719 9.13166016 7.13273437 9.82582031 7.13671875 10.54101562 C7.12663994 15.74672012 7.12663994 15.74672012 6 18 C3.69 18 1.38 18 -1 18 C-1 17.34 -1 16.68 -1 16 C0.98 16 2.96 16 5 16 C4.67 11.71 4.34 7.42 4 3 C2.35 2.67 0.7 2.34 -1 2 C-0.67 1.34 -0.34 0.68 0 0 Z " fill="#D2362C" transform="translate(106,167)"/>
<path d="M0 0 C0.66 0 1.32 0 2 0 C2.33 2.64 2.66 5.28 3 8 C-0.3 8 -3.6 8 -7 8 C-7 6.35 -7 4.7 -7 3 C-5.5459375 2.814375 -5.5459375 2.814375 -4.0625 2.625 C-2.5465625 2.315625 -2.5465625 2.315625 -1 2 C-0.67 1.34 -0.34 0.68 0 0 Z " fill="#F9F5F4" transform="translate(127,151)"/>
<path d="M0 0 C3.3 0 6.6 0 10 0 C10.96088383 2.88265149 11.11670941 4.67662271 11.09765625 7.66796875 C11.09443359 8.56064453 11.09121094 9.45332031 11.08789062 10.37304688 C11.07951172 11.30181641 11.07113281 12.23058594 11.0625 13.1875 C11.05798828 14.12787109 11.05347656 15.06824219 11.04882812 16.03710938 C11.03704626 18.35813712 11.02059558 20.67903644 11 23 C10.67 23 10.34 23 10 23 C9.67 16.73 9.34 10.46 9 4 C6.03 3.67 3.06 3.34 0 3 C0 2.01 0 1.02 0 0 Z " fill="#FBF1EF" transform="translate(104,163)"/>
<path d="M0 0 C1.258125 -0.04125 2.51625 -0.0825 3.8125 -0.125 C4.52019531 -0.14820313 5.22789063 -0.17140625 5.95703125 -0.1953125 C8 0 8 0 11 2 C11.1875 5.625 11.1875 5.625 11 9 C10.01 9 9.02 9 8 9 C8 7.35 8 5.7 8 4 C6.02 4 4.04 4 2 4 C1.67 5.32 1.34 6.64 1 8 C1 6.35 1 4.7 1 3 C1.66 2.67 2.32 2.34 3 2 C2.01 1.34 1.02 0.68 0 0 Z " fill="#CA483E" transform="translate(117,166)"/>
<path d="M0 0 C3.63 0 7.26 0 11 0 C11 2.31 11 4.62 11 7 C6.00724943 5.72278474 3.42388092 3.82669043 0 0 Z " fill="#822922" transform="translate(38,120)"/>
<path d="M0 0 C1.47668858 0.0133035 2.95331108 0.03716415 4.4296875 0.0703125 C5.18378906 0.07933594 5.93789062 0.08835938 6.71484375 0.09765625 C8.57826004 0.1212438 10.44151343 0.15711531 12.3046875 0.1953125 C12.3046875 0.5253125 12.3046875 0.8553125 12.3046875 1.1953125 C11.25667969 1.23269531 10.20867187 1.27007812 9.12890625 1.30859375 C7.74996445 1.37425765 6.37105979 1.44070485 4.9921875 1.5078125 C3.95674805 1.54165039 3.95674805 1.54165039 2.90039062 1.57617188 C-1.25455217 1.79696594 -2.88529134 2.26040151 -5.6953125 5.1953125 C-8.61328125 5.48828125 -8.61328125 5.48828125 -11.8828125 5.3828125 C-12.96949219 5.35574219 -14.05617187 5.32867188 -15.17578125 5.30078125 C-16.00722656 5.26597656 -16.83867187 5.23117188 -17.6953125 5.1953125 C-17.3653125 4.2053125 -17.0353125 3.2153125 -16.6953125 2.1953125 C-15.7053125 2.5253125 -14.7153125 2.8553125 -13.6953125 3.1953125 C-8.35294539 3.05778622 -4.84831555 0.25625346 0 0 Z " fill="#785D85" transform="translate(214.6953125,1.8046875)"/>
<path d="M0 0 C0 0.99 0 1.98 0 3 C0.99 3.33 1.98 3.66 3 4 C2.67 6.31 2.34 8.62 2 11 C1.67 11 1.34 11 1 11 C1 8.69 1 6.38 1 4 C0.34 4 -0.32 4 -1 4 C-1.33 4.99 -1.66 5.98 -2 7 C-3.98 7 -5.96 7 -8 7 C-8 8.65 -8 10.3 -8 12 C-8.33 12 -8.66 12 -9 12 C-9 10.02 -9 8.04 -9 6 C-7.02 5.67 -5.04 5.34 -3 5 C-3 4.34 -3 3.68 -3 3 C-4.65 2.67 -6.3 2.34 -8 2 C-4.77208445 -0.1519437 -3.71599191 -0.20086443 0 0 Z " fill="#F5DFDA" transform="translate(128,147)"/>
<path d="M0 0 C1.21236328 0.04060547 1.21236328 0.04060547 2.44921875 0.08203125 C3.06410156 0.11683594 3.67898437 0.15164062 4.3125 0.1875 C3.9825 0.8475 3.6525 1.5075 3.3125 2.1875 C1.3325 2.1875 -0.6475 2.1875 -2.6875 2.1875 C-1.3675 2.8475 -0.0475 3.5075 1.3125 4.1875 C-0.3375 4.1875 -1.9875 4.1875 -3.6875 4.1875 C-3.6875 5.8375 -3.6875 7.4875 -3.6875 9.1875 C-5.0075 8.8575 -6.3275 8.5275 -7.6875 8.1875 C-8.05266854 3.68375468 -8.05266854 3.68375468 -6.46875 1.53125 C-4.16764554 -0.20467091 -2.84767456 -0.12381194 0 0 Z " fill="#CB524B" transform="translate(108.6875,165.8125)"/>
<path d="M0 0 C6.27 0 12.54 0 19 0 C19 0.33 19 0.66 19 1 C17.02 1 15.04 1 13 1 C13 5.62 13 10.24 13 15 C12.67 15 12.34 15 12 15 C12 12.69 12 10.38 12 8 C11.34 7.67 10.68 7.34 10 7 C9.375 4.4375 9.375 4.4375 9 2 C6.03 1.67 3.06 1.34 0 1 C0 0.67 0 0.34 0 0 Z " fill="#D25E57" transform="translate(55,96)"/>
<path d="M0 0 C0.33 0 0.66 0 1 0 C1.024727 4.35994067 1.04287281 8.71984414 1.05493164 13.07983398 C1.05995903 14.56291413 1.06678185 16.04598933 1.07543945 17.52905273 C1.08757482 19.66130801 1.09324425 21.79349773 1.09765625 23.92578125 C1.10289307 25.20880127 1.10812988 26.49182129 1.11352539 27.8137207 C1 31 1 31 0 34 C-0.99 34 -1.98 34 -3 34 C-2.67854004 33.4834082 -2.35708008 32.96681641 -2.02587891 32.43457031 C-0.67617344 29.23150917 -0.67421517 26.51912989 -0.5859375 23.046875 C-0.56657135 22.38665344 -0.5472052 21.72643188 -0.5272522 21.04620361 C-0.46770651 18.94759847 -0.42117278 16.84893772 -0.375 14.75 C-0.33679706 13.3228934 -0.29774398 11.89580928 -0.2578125 10.46875 C-0.1620267 6.97937309 -0.07790358 3.48982714 0 0 Z " fill="#FDEEEC" transform="translate(101,88)"/>
<path d="M0 0 C2.4887613 0.45832634 3.37097217 1.46033997 4.97265625 3.36328125 C4.34617187 3.40066406 3.7196875 3.43804687 3.07421875 3.4765625 C2.25695312 3.54230469 1.4396875 3.60804688 0.59765625 3.67578125 C-0.62050781 3.76279297 -0.62050781 3.76279297 -1.86328125 3.8515625 C-4.40655713 4.19318653 -4.40655713 4.19318653 -6.02734375 7.36328125 C-7.01734375 7.03328125 -8.00734375 6.70328125 -9.02734375 6.36328125 C-7.87227492 0.5879371 -5.75560368 0.13985579 0 0 Z " fill="#C94740" transform="translate(108.02734375,158.63671875)"/>
<path d="M0 0 C4 1 4 1 5 2 C5.1875 4.4375 5.1875 4.4375 5 7 C4.34 7.66 3.68 8.32 3 9 C2.01 9 1.02 9 0 9 C0 6.03 0 3.06 0 0 Z " fill="#CF4338" transform="translate(71,99)"/>
<path d="M0 0 C-0.34021964 3.17538332 -1.02466604 4.02276865 -3.4375 6.25 C-6 8 -6 8 -8 8 C-7.63487253 5.2980567 -7.30130763 3.41609148 -5.6875 1.1875 C-4 0 -4 0 0 0 Z " fill="#CA4E47" transform="translate(139,165)"/>
<path d="M0 0 C2.7019433 0.36512747 4.58390852 0.69869237 6.8125 2.3125 C8 4 8 4 8 8 C5 8 5 8 2.3125 5.6875 C0 3 0 3 0 0 Z " fill="#CA4D44" transform="translate(91,165)"/>
<path d="M0 0 C0 1.98 0 3.96 0 6 C-1.98 6.99 -1.98 6.99 -4 8 C-4 7.34 -4 6.68 -4 6 C-3.34 6 -2.68 6 -2 6 C-2 4.35 -2 2.7 -2 1 C-2.78375 1.185625 -3.5675 1.37125 -4.375 1.5625 C-7 2 -7 2 -9 1 C-9 0.34 -9 -0.32 -9 -1 C-5.79937313 -2.60031344 -3.27728194 -1.03173691 0 0 Z " fill="#F8F5F3" transform="translate(141,164)"/>
<path d="M0 0 C0.33 0 0.66 0 1 0 C1.07347656 0.92232422 1.07347656 0.92232422 1.1484375 1.86328125 C1.22320312 2.67152344 1.29796875 3.47976562 1.375 4.3125 C1.44460937 5.11300781 1.51421875 5.91351563 1.5859375 6.73828125 C1.89564426 9.27224441 1.89564426 9.27224441 4 12 C4.125 15.1875 4.125 15.1875 4 18 C3.773125 17.360625 3.54625 16.72125 3.3125 16.0625 C2.14749104 13.72806339 2.14749104 13.72806339 -0.625 13.25 C-1.40875 13.1675 -2.1925 13.085 -3 13 C-2.01 12.67 -1.02 12.34 0 12 C0 11.01 0 10.02 0 9 C-0.99 8.67 -1.98 8.34 -3 8 C-2.34 7.67 -1.68 7.34 -1 7 C-0.59270772 4.67843403 -0.25561323 2.3431213 0 0 Z " fill="#F4DAD5" transform="translate(138,150)"/>
<path d="M0 0 C0.66 0 1.32 0 2 0 C2 3.96 2 7.92 2 12 C2.66 12.33 3.32 12.66 4 13 C2.68 13.33 1.36 13.66 0 14 C0 9.38 0 4.76 0 0 Z " fill="#F9F7F5" transform="translate(120,176)"/>
<path d="M0 0 C0.33 0.99 0.66 1.98 1 3 C-2.63 6.63 -6.26 10.26 -10 14 C-10 9.84439769 -7.7179548 8.15900671 -5 5.3125 C-4.52304688 4.80138672 -4.04609375 4.29027344 -3.5546875 3.76367188 C-2.37640085 2.50290516 -1.18904747 1.25062314 0 0 Z " fill="#715782" transform="translate(226,35)"/>
<path d="M0 0 C0.66 0.33 1.32 0.66 2 1 C1.67 3.31 1.34 5.62 1 8 C-0.32 7.67 -1.64 7.34 -3 7 C-3 5.02 -3 3.04 -3 1 C-2.01 0.67 -1.02 0.34 0 0 Z " fill="#CD4B42" transform="translate(125,179)"/>
<path d="M0 0 C0.99 0.33 1.98 0.66 3 1 C3 3.97 3 6.94 3 10 C1.68 9.67 0.36 9.34 -1 9 C-0.67 6.03 -0.34 3.06 0 0 Z " fill="#FAF1F1" transform="translate(135,148)"/>
<path d="M0 0 C0.33 0 0.66 0 1 0 C1 1.65 1 3.3 1 5 C2.65 5.33 4.3 5.66 6 6 C6 6.99 6 7.98 6 9 C1.25 8.25 1.25 8.25 -1 6 C-0.625 2.875 -0.625 2.875 0 0 Z " fill="#CD4339" transform="translate(132,153)"/>
<path d="M0 0 C0.33 0 0.66 0 1 0 C1 2.64 1 5.28 1 8 C1.66 8.33 2.32 8.66 3 9 C2.34 9 1.68 9 1 9 C1 9.99 1 10.98 1 12 C0.01 12 -0.98 12 -2 12 C-2 14.31 -2 16.62 -2 19 C-2.33 19 -2.66 19 -3 19 C-3.1953125 12.9453125 -3.1953125 12.9453125 -3 11 C-2.34 10.34 -1.68 9.68 -1 9 C-0.53993654 6.79749008 -0.53993654 6.79749008 -0.375 4.375 C-0.30023438 3.55773437 -0.22546875 2.74046875 -0.1484375 1.8984375 C-0.09945312 1.27195313 -0.05046875 0.64546875 0 0 Z " fill="#F6D2D0" transform="translate(91,150)"/>
<path d="M0 0 C2.05078125 0.03255208 4.1015625 0.06510417 6.15234375 0.09765625 C6.48234375 1.08765625 6.81234375 2.07765625 7.15234375 3.09765625 C8.14234375 3.42765625 9.13234375 3.75765625 10.15234375 4.09765625 C6.92506518 5.71129553 4.46311324 4.18221867 1.15234375 3.09765625 C-0.20116219 2.4729612 -1.54700108 1.82602315 -2.84765625 1.09765625 C-1.84765625 0.09765625 -1.84765625 0.09765625 0 0 Z " fill="#D04640" transform="translate(119.84765625,132.90234375)"/>
<path d="M0 0 C0.66 0 1.32 0 2 0 C2.042721 1.66611905 2.04063832 3.33382885 2 5 C1 6 1 6 -0.84765625 6.09765625 C-2.8984375 6.06510417 -4.94921875 6.03255208 -7 6 C-7 5.34 -7 4.68 -7 4 C-5.02 3.67 -3.04 3.34 -1 3 C-0.67 2.01 -0.34 1.02 0 0 Z " fill="#CD3B2E" transform="translate(111,187)"/>
<path d="M0 0 C1.65 0 3.3 0 5 0 C6.1577506 3.47325181 6.06866652 6.36067448 6 10 C5.67 10 5.34 10 5 10 C5 8.02 5 6.04 5 4 C3.02 4 1.04 4 -1 4 C-0.67 2.68 -0.34 1.36 0 0 Z " fill="#CF625C" transform="translate(105,149)"/>
<path d="M0 0 C1.65 0 3.3 0 5 0 C4.67 1.32 4.34 2.64 4 4 C1.36 3.67 -1.28 3.34 -4 3 C-2.68 2.67 -1.36 2.34 0 2 C0 1.34 0 0.68 0 0 Z " fill="#FAF9F6" transform="translate(129,174)"/>
<path d="M0 0 C0.99 0.33 1.98 0.66 3 1 C2.49396008 3.16874252 2.00016187 4.99967627 1 7 C0.01 7 -0.98 7 -2 7 C-1.125 1.125 -1.125 1.125 0 0 Z " fill="#C7534A" transform="translate(105,139)"/>
<path d="M0 0 C0.33 0 0.66 0 1 0 C1 3.3 1 6.6 1 10 C0.01 10 -0.98 10 -2 10 C-2.17942163 6.05272412 -2.09350689 3.4019487 0 0 Z " fill="#D13B2F" transform="translate(141,170)"/>
<path d="M0 0 C2.64 0 5.28 0 8 0 C8 0.99 8 1.98 8 3 C5.36 3 2.72 3 0 3 C0 2.01 0 1.02 0 0 Z " fill="#D24238" transform="translate(103,133)"/>
<path d="M0 0 C0.33 0 0.66 0 1 0 C0.38461538 6.52307692 0.38461538 6.52307692 -1.5625 8.9375 C-2.036875 9.288125 -2.51125 9.63875 -3 10 C-3.80967438 7.08517222 -4.21845993 5.53886783 -3.0625 2.6875 C-2.711875 2.130625 -2.36125 1.57375 -2 1 C-1.67 1.66 -1.34 2.32 -1 3 C-0.67 2.01 -0.34 1.02 0 0 Z " fill="#CC574F" transform="translate(145,163)"/>
<path d="M0 0 C2.125 0.375 2.125 0.375 4 1 C3.34 2.65 2.68 4.3 2 6 C1.67 5.01 1.34 4.02 1 3 C0.34 3 -0.32 3 -1 3 C-1.33 4.32 -1.66 5.64 -2 7 C-2.125 4.625 -2.125 4.625 -2 2 C-1.34 1.34 -0.68 0.68 0 0 Z " fill="#CE5D5A" transform="translate(97,147)"/>
<path d="M0 0 C0.66 0.33 1.32 0.66 2 1 C2 1.66 2 2.32 2 3 C-0.90548882 5.04169485 -2.40142046 6 -6 6 C-4.98545548 3.4636387 -4.3146444 2.20648539 -2 0.6875 C-1.34 0.460625 -0.68 0.23375 0 0 Z " fill="#F7E3E0" transform="translate(98,144)"/>
<path d="M0 0 C1.32 0.33 2.64 0.66 4 1 C4.33 2.65 4.66 4.3 5 6 C3.68 5.67 2.36 5.34 1 5 C0.67 3.35 0.34 1.7 0 0 Z " fill="#C6453C" transform="translate(122,140)"/>
<path d="M0 0 C0.33 0 0.66 0 1 0 C1 4.29 1 8.58 1 13 C0.67 12.34 0.34 11.68 0 11 C-0.66 11 -1.32 11 -2 11 C-1.34 7.37 -0.68 3.74 0 0 Z " fill="#CB4740" transform="translate(80,97)"/>
<path d="M0 0 C2.475 0.495 2.475 0.495 5 1 C5 1.99 5 2.98 5 4 C3.35 4.33 1.7 4.66 0 5 C0 3.35 0 1.7 0 0 Z " fill="#CF5951" transform="translate(58,99)"/>
<path d="M0 0 C0.33 1.32 0.66 2.64 1 4 C0.34 4 -0.32 4 -1 4 C-1.33 4.99 -1.66 5.98 -2 7 C-2 6.01 -2 5.02 -2 4 C-3.65 4 -5.3 4 -7 4 C-7 3.34 -7 2.68 -7 2 C-4.69 2 -2.38 2 0 2 C0 1.34 0 0.68 0 0 Z " fill="#D5534D" transform="translate(112,183)"/>
<path d="M0 0 C2.09749995 2.35968744 2.96905704 3.54616994 3.1875 6.75 C3.0946875 7.86375 3.0946875 7.86375 3 9 C2.01 9 1.02 9 0 9 C0 6.03 0 3.06 0 0 Z " fill="#F8F4F3" transform="translate(120,139)"/>
<path d="M0 0 C1.27351308 2.54702616 0.80191925 3.4282945 0.0625 6.125 C-0.13214844 6.84945312 -0.32679688 7.57390625 -0.52734375 8.3203125 C-0.68332031 8.87460938 -0.83929688 9.42890625 -1 10 C-1.33 8.68 -1.66 7.36 -2 6 C-2.66 6 -3.32 6 -4 6 C-3.6875 4.125 -3.6875 4.125 -3 2 C-2.01 1.34 -1.02 0.68 0 0 Z " fill="#CF5853" transform="translate(140,170)"/>
<path d="M0 0 C1.32 0 2.64 0 4 0 C4 1.32 4 2.64 4 4 C2.02 4 0.04 4 -2 4 C-1.34 2.68 -0.68 1.36 0 0 Z " fill="#FBF7F5" transform="translate(106,154)"/>
<path d="M0 0 C0.66 0.33 1.32 0.66 2 1 C1.34 3.64 0.68 6.28 0 9 C-0.33 8.01 -0.66 7.02 -1 6 C-1.66 6 -2.32 6 -3 6 C-1.125 1.125 -1.125 1.125 0 0 Z " fill="#F0D3CF" transform="translate(103,137)"/>
<path d="M0 0 C-0.99 0.66 -1.98 1.32 -3 2 C-4.21284876 5.05429073 -4.21284876 5.05429073 -5 8 C-5.33 8 -5.66 8 -6 8 C-6 5.36 -6 2.72 -6 0 C-3.50907189 -1.24546405 -2.58919267 -0.7767578 0 0 Z " fill="#D73628" transform="translate(123,135)"/>
<path d="M0 0 C0.75 1.75 0.75 1.75 1 4 C-0.6875 6.3125 -0.6875 6.3125 -3 8 C-5.25 7.75 -5.25 7.75 -7 7 C-6.401875 6.773125 -5.80375 6.54625 -5.1875 6.3125 C-2.43648112 4.66188867 -1.47515363 2.8027919 0 0 Z " fill="#F6E4DE" transform="translate(141,180)"/>
<path d="M0 0 C1.35015859 4.05047576 0.62084998 6.7920168 0 11 C-1.84651134 7.88401212 -2.38079379 5.61754103 -2 2 C-1.34 1.34 -0.68 0.68 0 0 Z " fill="#D2392D" transform="translate(87,159)"/>
<path d="M0 0 C0.33 0.66 0.66 1.32 1 2 C1.66 2.33 2.32 2.66 3 3 C2.34 3.66 1.68 4.32 1 5 C-0.32 5 -1.64 5 -3 5 C-3 4.01 -3 3.02 -3 2 C-2.01 1.34 -1.02 0.68 0 0 Z " fill="#C9493F" transform="translate(95,157)"/>
<path d="M0 0 C0.66 0 1.32 0 2 0 C1.67 2.97 1.34 5.94 1 9 C0.34 8.67 -0.32 8.34 -1 8 C-1.04241723 5.66705225 -1.04092937 3.33297433 -1 1 C-0.67 0.67 -0.34 0.34 0 0 Z " fill="#D1392C" transform="translate(89,149)"/>
<path d="M0 0 C1.98 0.66 3.96 1.32 6 2 C5.67 2.66 5.34 3.32 5 4 C2.67843403 4.40729228 0.3431213 4.74438677 -2 5 C-1.01 4.34 -0.02 3.68 1 3 C0.67 2.01 0.34 1.02 0 0 Z " fill="#F3D5D0" transform="translate(122,186)"/>
<path d="M0 0 C0.598125 0.20625 1.19625 0.4125 1.8125 0.625 C2.1425 2.275 2.4725 3.925 2.8125 5.625 C2.4825 4.635 2.1525 3.645 1.8125 2.625 C-0.4975 2.295 -2.8075 1.965 -5.1875 1.625 C-2.1875 -0.375 -2.1875 -0.375 0 0 Z " fill="#F3D6D3" transform="translate(63.1875,97.375)"/>
</svg>
